<?xml version="1.0" encoding="UTF-8"?><svg id="a" xmlns="http://www.w3.org/2000/svg" viewBox="0 0 500 500"><defs><style>.b{fill:#fff;}.c{fill:#ff060a;}</style></defs><path class="c" d="M250,500c138.07,0,250-111.93,250-250S388.07,0,250,0,0,111.93,0,250s111.93,250,250,250Z"/><path class="b" d="M396.78,205.14c-14.43-12.76-34.38-32.25-50.64-46.07l-.96-.64c-1.6-1.23-3.4-2.2-5.34-2.86h0c-39.19-7-221.59-39.67-225.15-39.26-1,.13-1.95,.48-2.79,1.01l-.91,.69c-1.13,1.09-1.98,2.42-2.5,3.87l-.24,.6v3.78c20.53,54.78,101.61,234.24,117.58,276.35,.96,2.86,2.79,8.29,6.2,8.57h.77c1.83,0,9.62-9.86,9.62-9.86,0,0,139.27-161.81,153.35-179.04,1.82-2.12,3.43-4.41,4.81-6.82,.35-1.89,.19-3.83-.48-5.64-.67-1.81-1.81-3.42-3.32-4.68h0Zm-118.63,18.84l59.44-47.23,34.86,30.78-94.3,16.45Zm-23.08-3.09l-102.33-80.35,165.57,29.26-63.24,51.1Zm9.23,21.06l104.74-16.17-119.74,138.22,15-122.05Zm-125.46-93.39l107.67,87.54-15.58,128-92.09-215.54Z"/></svg>