<svg width="512" height="512" viewBox="0 0 512 512" fill="none" xmlns="http://www.w3.org/2000/svg">
<circle cx="256" cy="256" r="256" fill="url(#paint0_linear_213_2)"/>
<path d="M169.623 165.938L169.661 165.919C170.679 165.421 171.499 165.11 173.05 164.958C174.44 164.822 176.504 164.804 180.036 164.804C184.187 164.804 186.886 164.877 188.827 165.32C189.855 165.555 190.723 165.903 191.52 166.418C192.3 166.922 192.932 167.537 193.529 168.193L193.529 168.193C193.64 168.315 193.745 168.461 193.787 168.519L193.794 168.529C193.867 168.63 193.959 168.761 194.066 168.915C194.281 169.225 194.578 169.66 194.949 170.208C195.692 171.306 196.748 172.882 198.08 174.88C200.746 178.878 204.526 184.579 209.143 191.562C218.376 205.529 230.958 224.631 244.665 245.504C258.365 266.366 274.895 291.044 290.307 314.01C292.215 316.854 294.106 319.671 295.973 322.452C309.164 342.105 321.125 359.925 329.196 372.191L346.779 396.594C349.525 400.187 348.669 405.441 344.727 407.83C341.945 409.516 339.121 411.14 336.257 412.701C336.07 412.803 335.908 412.851 335.851 412.867C335.775 412.889 335.712 412.903 335.675 412.91C335.626 412.92 335.582 412.926 335.549 412.931C335.532 412.933 335.518 412.935 335.507 412.936C335.472 412.94 335.438 412.943 335.408 412.946C335.381 412.948 335.357 412.95 335.337 412.951C335.25 412.957 335.148 412.961 335.046 412.965C334.835 412.972 334.553 412.978 334.23 412.983C333.582 412.992 332.733 412.998 331.888 413C331.044 413.001 330.194 412.998 329.544 412.989C329.221 412.984 328.935 412.978 328.72 412.97C328.616 412.966 328.505 412.96 328.406 412.952C328.362 412.948 328.284 412.941 328.196 412.927C328.156 412.921 328.071 412.907 327.967 412.879C327.916 412.865 327.828 412.839 327.723 412.796C327.65 412.766 327.474 412.69 327.277 412.542C326.952 412.298 326.759 412.058 326.442 411.643C326.111 411.209 325.512 410.398 324.363 408.833C323.974 408.303 323.52 407.686 322.99 406.964C320.373 403.399 315.898 397.303 308.174 386.824L308.163 386.809L308.153 386.795L275.628 340.989L275.614 340.968L275.6 340.947L233.284 278.063C221.643 260.778 211.035 245.069 203.316 233.681C199.492 228.04 196.379 223.461 194.201 220.277C194.166 223.325 194.133 227.412 194.101 232.313C194.029 243.554 193.967 259.064 193.926 276.121L169.623 165.938ZM169.623 165.938L169.586 165.959M169.623 165.938L169.586 165.959M169.586 165.959C168.413 166.596 166.78 167.876 165.907 169.017L164.638 170.619L164.207 171.164M169.586 165.959L164.207 171.164M164.207 171.164L164.206 171.858M164.207 171.164L164.206 171.858M164.206 171.858L164 338.129L163.999 338.572M164.206 171.858L163.999 338.572M163.999 338.572L164.186 338.974M163.999 338.572L164.186 338.974M164.186 338.974L165.053 340.84L165.07 340.876M164.186 338.974L165.07 340.876M165.07 340.876L165.089 340.912M165.07 340.876L165.089 340.912M165.089 340.912C165.865 342.418 167.011 343.725 168.56 344.71L168.563 344.713M165.089 340.912L168.563 344.713M168.563 344.713L170.462 345.915L170.952 346.225M168.563 344.713L170.952 346.225M170.952 346.225H171.532M170.952 346.225H171.532M171.532 346.225H178.674C184.722 346.225 186.442 346.149 188.282 345.225L188.299 345.216M171.532 346.225L188.299 345.216M188.299 345.216L188.316 345.207M188.299 345.216L188.316 345.207M188.316 345.207C189.292 344.694 190.13 344.142 190.885 343.363C191.629 342.595 192.207 341.694 192.786 340.599L192.787 340.598M188.316 345.207L192.787 340.598M192.787 340.598C193.162 339.886 193.332 339.148 193.449 337.703M192.787 340.598L193.449 337.703M193.449 337.703C193.566 336.27 193.645 333.908 193.704 329.792M193.449 337.703L193.704 329.792M193.704 329.792C193.823 321.532 193.864 305.98 193.926 276.121L193.704 329.792ZM299.628 160.175L299.607 160.185L299.587 160.197C297.11 161.544 295.332 163.817 294.532 166.629L294.526 166.651L294.52 166.674C294.451 166.94 294.428 167.261 294.416 167.422L294.415 167.43C294.398 167.666 294.383 167.967 294.368 168.325C294.339 169.043 294.312 170.044 294.287 171.312C294.236 173.852 294.193 177.506 294.156 182.219C294.084 191.647 294.043 205.332 294.043 222.849V275.165C294.043 276.768 294.508 278.337 295.383 279.68L307.494 298.265L307.495 298.267L309.176 300.855C313.651 307.743 324.279 304.545 324.293 296.363L324.382 242.791C324.423 216.82 324.423 198.068 324.371 185.672C324.345 179.475 324.307 174.86 324.254 171.723C324.227 170.156 324.197 168.946 324.162 168.087C324.145 167.66 324.126 167.304 324.104 167.027L324.103 167.015C324.089 166.833 324.061 166.47 323.972 166.163C323.234 163.621 321.248 161.293 318.811 160.058C317.869 159.546 316.994 159.278 315.578 159.144C314.261 159.019 312.359 159 309.336 159C306.138 159 304.236 159.018 302.925 159.162C301.444 159.325 300.629 159.66 299.628 160.175Z" fill="url(#paint1_linear_213_2)" stroke="url(#paint2_linear_213_2)" stroke-width="4"/>
<defs>
<linearGradient id="paint0_linear_213_2" x1="0" y1="0" x2="512" y2="512" gradientUnits="userSpaceOnUse">
<stop stop-color="#00CB84"/>
<stop offset="1" stop-color="#249B70"/>
</linearGradient>
<linearGradient id="paint1_linear_213_2" x1="166" y1="161" x2="403.25" y2="332.18" gradientUnits="userSpaceOnUse">
<stop stop-color="#DFF3F7"/>
<stop offset="1" stop-color="#EFDFF7"/>
</linearGradient>
<linearGradient id="paint2_linear_213_2" x1="166" y1="161" x2="403.25" y2="332.18" gradientUnits="userSpaceOnUse">
<stop stop-color="#DFF3F7"/>
<stop offset="1" stop-color="#EFDFF7"/>
</linearGradient>
</defs>
</svg>
